HIERARCHY
ROOT Hips
{
	OFFSET 0.000000 0.000000 0.000000 
	CHANNELS 6 Xposition Yposition Zposition Xrotation Yrotation Zrotation
	JOINT Spine
	{
		OFFSET 0.000000 1.722820 2.584230 
		CHANNELS 3 Xrotation Yrotation Zrotation
		JOINT Spine1
		{
			OFFSET 0.000000 0.598330 3.393290 
			CHANNELS 3 Xrotation Yrotation Zrotation
			JOINT Spine2
			{
				OFFSET 0.000000 0.300310 3.432520 
				CHANNELS 3 Xrotation Yrotation Zrotation
				JOINT Spine3
				{
					OFFSET 0.000000 0.000000 3.445640 
					CHANNELS 3 Xrotation Yrotation Zrotation
					JOINT Neck
					{
						OFFSET 0.000000 -1.292100 9.044790 
						CHANNELS 3 Xrotation Yrotation Zrotation
						JOINT Head
						{
							OFFSET 0.000000 -0.822700 4.665770 
							CHANNELS 3 Xrotation Yrotation Zrotation
							End Site
							{
								OFFSET 0.000000 0.000010 5.577620 
							}
						}
					}
					JOINT RightShoulder
					{
						OFFSET -1.175120 -1.958530 6.345670 
						CHANNELS 3 Xrotation Yrotation Zrotation
						JOINT RightArm
						{
							OFFSET -5.836450 0.000000 0.000000 
							CHANNELS 3 Xrotation Yrotation Zrotation
							JOINT RightForeArm
							{
								OFFSET -10.886420 0.000000 0.000000 
								CHANNELS 3 Xrotation Yrotation Zrotation
								JOINT RightHand
								{
									OFFSET -10.194950 0.000000 0.000000 
									CHANNELS 3 Xrotation Yrotation Zrotation
									JOINT RightHandEnd
									{
										OFFSET -2.735920 0.000000 0.000000 
										CHANNELS 3 Xrotation Yrotation Zrotation
										End Site
										{
											OFFSET -2.735920 0.000000 0.000000 
										}
									}
									JOINT RightHandThumb1
									{
										OFFSET -1.094370 -1.823950 -0.729580 
										CHANNELS 3 Yrotation Xrotation Zrotation
										End Site
										{
											OFFSET -2.642700 -0.708110 0.000000 
										}
									}
								}
							}
						}
					}
					JOINT LeftShoulder
					{
						OFFSET 1.175120 -1.958530 6.345670 
						CHANNELS 3 Xrotation Yrotation Zrotation
						JOINT LeftArm
						{
							OFFSET 5.836450 0.000000 0.000000 
							CHANNELS 3 Xrotation Yrotation Zrotation
							JOINT LeftForeArm
							{
								OFFSET 10.886420 0.000000 0.000000 
								CHANNELS 3 Xrotation Yrotation Zrotation
								JOINT LeftHand
								{
									OFFSET 10.194950 0.000000 0.000000 
									CHANNELS 3 Xrotation Yrotation Zrotation
									JOINT LeftHandEnd
									{
										OFFSET 2.735920 0.000000 0.000000 
										CHANNELS 3 Xrotation Yrotation Zrotation
										End Site
										{
											OFFSET 2.735920 0.000000 0.000000 
										}
									}
									JOINT LeftHandThumb1
									{
										OFFSET 1.094370 -1.823950 -0.729580 
										CHANNELS 3 Yrotation Xrotation Zrotation
										End Site
										{
											OFFSET 2.642700 -0.708110 0.000000 
										}
									}
								}
							}
						}
					}
				}
			}
		}
	}
	JOINT RightUpLeg
	{
		OFFSET -3.486200 0.000000 -1.018440 
		CHANNELS 3 Xrotation Yrotation Zrotation
		JOINT RightLeg
		{
			OFFSET 0.000010 0.000000 -16.688210 
			CHANNELS 3 Xrotation Yrotation Zrotation
			JOINT RightFoot
			{
				OFFSET 0.000010 0.000000 -16.775360 
				CHANNELS 3 Xrotation Yrotation Zrotation
				JOINT RightToeBase
				{
					OFFSET 0.000000 -4.945160 -1.799890 
					CHANNELS 3 Xrotation Yrotation Zrotation
					End Site
					{
						OFFSET 0.000000 -2.820300 -0.000000 
					}
				}
			}
		}
	}
	JOINT LeftUpLeg
	{
		OFFSET 3.486200 0.000000 -1.018440 
		CHANNELS 3 Xrotation Yrotation Zrotation
		JOINT LeftLeg
		{
			OFFSET 0.000010 0.000000 -16.688210 
			CHANNELS 3 Xrotation Yrotation Zrotation
			JOINT LeftFoot
			{
				OFFSET 0.000010 0.000000 -16.775360 
				CHANNELS 3 Xrotation Yrotation Zrotation
				JOINT LeftToeBase
				{
					OFFSET 0.000000 -4.945160 -1.799890 
					CHANNELS 3 Xrotation Yrotation Zrotation
					End Site
					{
						OFFSET 0.000000 -2.820300 -0.000000 
					}
				}
			}
		}
	}
}
MOTION
Frames: 4
Frame Time: 0.008333
-4.562700 36.605099 -3.237100 -86.158401 2.065700 -2.205700 0.462900 -1.503400 -0.412700 0.399000 -0.187400 -0.106500 1.676200 -2.133900 -1.257200 0.805600 -0.092600 -0.038500 12.029200 1.836900 1.736900 3.980800 5.495500 3.939300 5.599400 -6.988900 -1.471200 57.234501 -53.248402 55.234100 0.000000 0.000000 23.524599 -24.875799 -13.181500 -10.063800 0.000000 0.000000 0.000000 0.000000 -0.000000 0.000000 6.295200 13.739900 -2.311300 1.012700 66.025597 1.163400 -0.000000 -0.000000 -24.919701 -7.865800 17.560400 15.770100 -0.000000 0.000000 -0.000000 0.000000 -0.000000 0.000000 0.593200 -5.213500 -7.821500 13.490700 0.000000 0.000000 -13.318800 1.339400 0.625900 -1.803300 0.000000 -0.000000 -4.415100 -10.506800 2.433400 23.276100 0.000000 0.000000 -15.945800 7.814100 -0.307000 -3.482000 0.000000 -0.000000 
-4.579400 36.602699 -3.213000 -86.096100 2.024300 -2.199600 0.426500 -1.478900 -0.424900 0.373800 -0.159400 -0.104400 1.717400 -2.116700 -1.282800 0.821500 -0.100800 -0.058900 12.085700 1.933800 1.810000 3.855300 5.469200 4.051100 5.628700 -6.912500 -1.559300 57.045898 -53.056900 54.795502 0.000000 0.000000 24.089100 -26.027700 -12.591100 -9.709800 -0.000000 0.000000 -0.000000 -0.000000 0.000000 0.000000 6.336200 13.686400 -2.260500 2.820400 65.392303 -0.450300 -0.000000 -0.000000 -25.426600 -6.980000 17.586599 15.222700 -0.000000 0.000000 -0.000000 -0.000000 -0.000000 -0.000000 0.531800 -5.196000 -7.832500 13.564800 0.000000 0.000000 -13.356100 1.355200 0.623100 -1.881200 0.000000 -0.000000 -4.127600 -10.430200 2.282800 22.697500 0.000000 0.000000 -16.003201 7.852200 0.002300 -3.336400 0.000000 -0.000000 
-4.595800 36.598499 -3.190800 -86.034500 1.994600 -2.170700 0.397300 -1.466400 -0.434400 0.351900 -0.131300 -0.102100 1.747200 -2.099700 -1.310900 0.835600 -0.112600 -0.079000 12.156200 2.027800 1.881300 3.745400 5.449000 4.159400 5.645900 -6.819100 -1.644900 56.570702 -52.984798 54.156898 0.000000 0.000000 24.546400 -26.758400 -12.070400 -9.448200 -0.000000 -0.000000 -0.000000 0.000000 -0.000000 -0.000000 6.360900 13.617500 -2.187600 4.778400 64.689499 -2.228000 -0.000000 -0.000000 -25.949499 -6.792100 17.810600 14.727300 0.000000 -0.000000 0.000000 -0.000000 -0.000000 0.000000 0.469900 -5.191800 -7.854000 13.637500 0.000000 0.000000 -13.404300 1.376300 0.610400 -1.952400 0.000000 -0.000000 -3.856700 -10.374700 2.151500 22.138000 0.000000 0.000000 -16.075001 7.884700 0.267200 -3.173600 0.000000 -0.000000 
-4.612000 36.592098 -3.170100 -85.972702 1.982000 -2.120700 0.374200 -1.472100 -0.443300 0.331600 -0.102800 -0.099500 1.765600 -2.082400 -1.337800 0.849200 -0.124700 -0.097300 12.237600 2.111900 1.949200 3.653700 5.436600 4.265100 5.666200 -6.756100 -1.724600 55.869099 -52.924900 53.342800 0.000000 0.000000 24.948799 -27.050501 -11.558700 -9.290800 0.000000 -0.000000 0.000000 0.000000 0.000000 0.000000 6.361500 13.505400 -2.102100 6.750700 63.985600 -4.025500 -0.000000 -0.000000 -26.483601 -6.483000 17.857500 14.182200 0.000000 0.000000 0.000000 0.000000 0.000000 0.000000 0.408200 -5.206700 -7.883800 13.707100 0.000000 0.000000 -13.464700 1.402500 0.587500 -2.014800 0.000000 -0.000000 -3.607300 -10.347000 2.044000 21.610600 0.000000 0.000000 -16.169500 7.911300 0.476100 -2.986200 0.000000 -0.000000 
